<svg xmlns="http://www.w3.org/2000/svg"
  xmlns:xlink="http://www.w3.org/1999/xlink" viewBox="0 0 500 500">
  <defs>
    <style>
      .cls-1 {
        fill: none;
      }

      .cls-2 {
        fill: #003662;
      }

      .cls-3 {
        clip-path: url(#clip-path);
      }

      .cls-4 {
        fill: #fff;
      }

      .cls-5 {
        fill: #e9e9ea;
      }

      .cls-6 {
        fill: #f2f2f1;
      }
      
     #paperplane{
        transform-origin: 250px;
        animation: fly_paperplane ease-in-out infinite 5s;
      }
      @keyframes fly_paperplane{
          0% {transform: translate(0,0) rotate(0) scale(1);}
          50% {transform: translate(5px, 20px)  rotate(10deg) scale(0.90);}
          100% {transform: translate(0,0)  rotate(0) scale(1);}
                }

      #cloud_1{
          animation: move_cloud_1 linear infinite 3s; }
      @keyframes move_cloud_1{
          0% {transform: translateX(0px);}
          25% {transform: translateX(-150px);}
          25.001% {transform: translateX(450px);}
          50% {transform: translateX(300px);}
          75% {transform: translateX(150px);}
          100% {transform: translateX(0px);}
      }
      
      #cloud_2{
          animation: move_cloud_2 linear infinite 3.1s; }
      @keyframes move_cloud_2{
          0% {transform: translateX(0px);}
          25% {transform: translateX(-200px);}
          50% {transform: translateX(-400px);}
          75% {transform: translateX(-600px);}
          75.0001% {transform: translateX(200px);}
          100% {transform: translateX(0px);}
      }

      #mountains_1{
        transform-origin: 250px 500px;
       transform: scale(2) translateY(-150px);
          animation: move_mountains_1 linear infinite 20s; }
      @keyframes move_mountains_1{
          0% {transform: translateX(0px) scale(1.5);}
          25% {transform: translateX(-300px) scale(1.5);}
          50% {transform: translateX(-600px) scale(1.5);}
          50.0001% {transform: translateX(600px) scale(1.5);}
          75% {transform: translateX(300px) scale(1.5);}
          100% {transform: translateX(0px) scale(1.5);}
      }

      #mountains_2{
        transform-origin: 200px 500px;
      transform: scale(2) translateY(-150px);
          animation: move_mountains_2 linear infinite 20s; }
      @keyframes move_mountains_2{
          0% {transform: translateX(600px) scale(1.5);}
          25% {transform: translateX(300px) scale(1.5);}
          50% {transform: translateX(0px) scale(1.5);}
          75% {transform: translateX(-300px) scale(1.5);}
          99.99% {transform: translateX(-600px) scale(1.5);}
          100% {transform: translateX(600px) scale(1.5);}
      }
    </style>
    <clipPath id="clip-path">
      <circle class="cls-1" cx="245" cy="250" r="227"/>
    </clipPath>
  </defs>
  <g id="BG">
    <path class="cls-2" d="M19.05,250c0-124.79,101.16-225.95,226-225.95S471,125.21,471,250,369.79,474,245,474,19.05,374.79,19.05,250Z"/>
  </g>
  <g id="clipping">
    <g class="cls-3">
      <g id="mountains_1">
        <polygon class="cls-4" points="412.84 401.65 398.89 415.6 349.1 388.71 300.31 423.56 271.43 403.64 239.33 425.04 211.77 401.63 180.71 414.06 135.01 383 92.42 413.61 45.83 394.98 21.43 428.25 5.49 500 59.43 500 59.43 500 409.73 500 499.41 500 468.6 430.53 412.84 401.65"/>
        <polygon class="cls-5" points="0.56 424.46 45.83 394.98 48.94 398.97 44.95 401.63 52.49 409.18 48.94 416.28 19.9 436.06 0.56 424.46"/>
        <polygon class="cls-5" points="135.01 383 88.01 411.85 114.61 423.38 131.02 413.61 128.36 405.63 137.23 401.19 132.8 394.98 135.01 383"/>
        <polygon class="cls-5" points="178.06 412.25 211.77 401.63 209.11 408.73 210.44 413.17 206 427.81 178.06 412.25"/>
        <polygon class="cls-5" points="271.43 403.64 273.42 414.6 266.45 417.59 273.42 420.57 248.52 434.52 239.33 425.04 271.43 403.64"/>
        <polyline class="cls-5" points="300.31 423.56 326.2 420.57 336.16 414.6 331.18 410.62 344.12 406.63 349.1 388.71 293.81 419.08 300.31 423.56"/>
        <polygon class="cls-5" points="412.84 401.65 414.83 409.62 411.08 422.92 389.87 410.72 412.84 401.65"/>
        <polygon class="cls-5" points="412.84 401.65 414.83 409.62 412.84 419.58 387.81 410.62 412.84 401.65"/>
      </g>
      <g id="mountains_2">
        <polygon class="cls-4" points="412.84 401.65 398.89 415.6 349.1 388.71 300.31 423.56 271.43 403.64 239.33 425.04 211.77 401.63 180.71 414.06 135.01 383 92.42 413.61 45.83 394.98 21.43 428.25 5.49 500 59.43 500 59.43 500 409.73 500 499.41 500 468.6 430.53 412.84 401.65"/>
        <polygon class="cls-5" points="0.56 424.46 45.83 394.98 48.94 398.97 44.95 401.63 52.49 409.18 48.94 416.28 19.9 436.06 0.56 424.46"/>
        <polygon class="cls-5" points="135.01 383 88.01 411.85 114.61 423.38 131.02 413.61 128.36 405.63 137.23 401.19 132.8 394.98 135.01 383"/>
        <polygon class="cls-5" points="178.06 412.25 211.77 401.63 209.11 408.73 210.44 413.17 206 427.81 178.06 412.25"/>
        <polygon class="cls-5" points="271.43 403.64 273.42 414.6 266.45 417.59 273.42 420.57 248.52 434.52 239.33 425.04 271.43 403.64"/>
        <polyline class="cls-5" points="300.31 423.56 326.2 420.57 336.16 414.6 331.18 410.62 344.12 406.63 349.1 388.71 293.81 419.08 300.31 423.56"/>
        <polygon class="cls-5" points="412.84 401.65 414.83 409.62 411.08 422.92 389.87 410.72 412.84 401.65"/>
        <polygon class="cls-5" points="412.84 401.65 414.83 409.62 412.84 419.58 387.81 410.62 412.84 401.65"/>
      </g>
      <g id="cloud_1" data-name="cloud 1">
        <path class="cls-4" d="M197.26,127H61.05a21,21,0,0,1,21-20,21.26,21.26,0,0,1,5.27.69,46,46,0,0,1,79,5.92,21.48,21.48,0,0,1,31,13.39Z"/>
      </g>
      <g id="cloud_2" data-name="cloud 2">
        <path class="cls-4" d="M429.17,176H238.58a39,39,0,0,1,57.57-22.4,60,60,0,0,1,99.31-.56c.51,0,1,0,1.54,0A34,34,0,0,1,429.17,176Z"/>
      </g>
      <g id="paperplane">
        <polygon class="cls-4" points="130 256 128 262 306.18 237.85 304 237 135 256 130 256"/>
        <polygon class="cls-4" points="305.51 237.06 74.35 244.55 126.88 260.7 305.51 237.06"/>
        <polygon class="cls-5" points="126.88 260.7 134.76 301.42 305.38 237.45 126.88 260.7"/>
        <polygon class="cls-6" points="142.65 268.58 134.76 301.42 289.75 244.94 142.65 268.58"/>
        <polygon class="cls-4" points="142.65 268.58 306.69 237.45 225.39 300.11 142.65 268.58"/>
      </g>
    </g>
  </g>
</svg>
